# xmcd
#
# Track frame offsets: 
#        150
#        10630
#        23137
#        37957
#        52662
#        61587
#        74645
#        90482
#        104592
#        117920
#        130450
#        142080
#        155437
#        170192
#        182682
#        195012
#        216025
#        229982
#        247455
#        261007
#        275300
#        300217
#
# Disc length: 4351 seconds
#
# Revision: 2
# Processed by: cddbd v1.5.2PL0 Copyright (c) Steve Scherf et al.
# Submitted via: ExactAudioCopy v0.99pb5
#
DISCID=2e10fd16
DTITLE=Louis Armstrong - What a Wonderful World
DYEAR=1900
DGENRE=Jazz
TTITLE0=What A Wonderfull World
TTITLE1=Cabaret
TTITLE2=The Home Fire
TTITLE3=Dream A Little Dream Of Me
TTITLE4=Give Me Your Kisses (I'll Give You My Heart)
TTITLE5=The Sunshine Of Love
TTITLE6=Hello Brother
TTITLE7=There Must Be A Way
TTITLE8=Fantastic, That's You
TTITLE9=I Guess I'll Get The Papers And Go Home
TTITLE10=Hellzapoppin'
TTITLE11=Moon River
TTITLE12=Blueberry Hill
TTITLE13=When The Saints Go Marchin' In
TTITLE14=Kokomo
TTITLE15=Jeepers Creepers
TTITLE16=Georgia In My Mind
TTITLE17=Basin Street Blues
TTITLE18=Struttin' With Some Barbecue
TTITLE19=Moments To Remember
TTITLE20=Otchi-tchor-ni-ya
TTITLE21=On The Sunny Side Of The Street
EXTD=
EXTT0=
EXTT1=
EXTT2=
EXTT3=
EXTT4=
EXTT5=
EXTT6=
EXTT7=
EXTT8=
EXTT9=
EXTT10=
EXTT11=
EXTT12=
EXTT13=
EXTT14=
EXTT15=
EXTT16=
EXTT17=
EXTT18=
EXTT19=
EXTT20=
EXTT21=
PLAYORDER=
